<?xml version="1.0" encoding="UTF-8" standalone="no"?>
<!-- Generator: visioncortex VTracer -->

<svg
   id="svg"
   version="1.1"
   style="display:block"
   viewBox="0 0 725.70154 699.73999"
   sodipodi:docname="logo.svg"
   width="725.70154"
   height="699.73999"
   inkscape:version="1.4.3 (0d15f75, 2025-12-25)"
   xmlns:inkscape="http://www.inkscape.org/namespaces/inkscape"
   xmlns:sodipodi="http://sodipodi.sourceforge.net/DTD/sodipodi-0.dtd"
   xmlns="http://www.w3.org/2000/svg"
   xmlns:svg="http://www.w3.org/2000/svg">
  <defs
     id="defs5" />
  <sodipodi:namedview
     id="namedview5"
     pagecolor="#ffffff"
     bordercolor="#000000"
     borderopacity="0.25"
     inkscape:showpageshadow="2"
     inkscape:pageopacity="0.0"
     inkscape:pagecheckerboard="0"
     inkscape:deskcolor="#d1d1d1"
     inkscape:zoom="0.33311516"
     inkscape:cx="415.77214"
     inkscape:cy="414.27115"
     inkscape:window-width="1710"
     inkscape:window-height="1045"
     inkscape:window-x="0"
     inkscape:window-y="34"
     inkscape:window-maximized="0"
     inkscape:current-layer="svg" />
  <path
     d="M 362.93803,0.00238037 C 364.12938,0.00159485 365.32074,8.0933e-4 366.54819,0 c 23.0485,0.01811413 46.13768,0.96872205 68.63984,6.3773804 1.98916,0.4458993 3.97878,0.889747 5.96875,1.3320312 12.48508,2.8173704 24.82813,5.8018924 37.03125,9.6679684 1.63969,0.506602 1.63969,0.506602 3.3125,1.023437 5.65164,1.802181 11.00176,3.925415 16.36328,6.457032 2.58763,1.182829 5.17553,2.299192 7.80469,3.382812 33.14959,13.710951 64.13561,31.903109 91.51953,55.136719 1.0319,0.858858 2.06448,1.716892 3.09766,2.574219 14.49005,12.073231 28.85128,24.777291 40.60546,39.574221 2.00208,2.48557 4.0728,4.88887 6.17994,7.28515 6.93056,7.94187 12.77234,16.53803 18.6018,25.30616 1.3452,2.00674 2.71565,3.99097 4.10498,5.96728 48.82946,70.05582 65.54932,162.36789 50.68248,245.8013 -2.12183,11.52885 -4.59571,22.94712 -8.19029,34.11276 -0.97585,3.04734 -1.80117,6.08977 -2.58203,9.19141 -1.28255,4.74756 -3.05192,9.16016 -5.00781,13.66797 -1.10952,2.61696 -2.16002,5.22855 -3.17188,7.88281 -11.07631,28.91542 -26.29382,56.18434 -45.32031,80.63672 -0.91081,1.19612 -1.82095,2.39274 -2.73047,3.58984 -8.33209,10.87727 -17.4894,20.81573 -27.26953,30.41016 -2.74044,2.72655 -5.46215,5.46975 -8.16406,8.23437 -6.94708,7.07937 -13.99921,13.66482 -21.83594,19.76563 -1.25764,1.01944 -2.51406,2.04038 -3.76953,3.0625 -19.26593,15.52528 -40.20859,28.69447 -62.23047,39.9375 -0.6919,0.3582 -1.38381,0.7164 -2.09668,1.08545 -31.25963,16.03518 -65.5689,26.21851 -99.90332,32.91455 -0.83886,0.16871 -1.67772,0.33741 -2.542,0.51123 -0.74669,0.14969 -1.49338,0.29939 -2.26269,0.45361 -0.61472,0.12367 -1.22945,0.24734 -1.86279,0.37476 -18.65818,3.37324 -37.34346,4.0094 -56.2688,3.97607 -3.72923,-0.003 -7.45765,0.0204 -11.18677,0.0457 -21.24347,0.0569 -42.13025,-1.7431 -62.93945,-6.11133 -1.24693,-0.25749 -2.49386,-0.51498 -3.77857,-0.78027 -60.87862,-12.90137 -120.16318,-41.14093 -166.15893,-83.46977 -1.28767,-1.12958 -2.57918,-2.25479 -3.875,-3.375 -10.67075,-9.30714 -20.901525,-18.87008 -30.125005,-29.625 -0.91884,-1.05506 -1.83815,-2.10972 -2.75781,-3.16406 -14.14218,-16.27074 -26.29941,-33.42593 -37.18506,-52.03467 -1.00476,-1.71203 -2.02468,-3.41512 -3.04541,-5.11768 C 22.507785,479.24115 8.3628351,436.97598 2.6255251,394.68988 c -0.12568,-0.8785 -0.25137,-1.75699 -0.38086,-2.66211 -1.92515997,-14.06075 -2.26000997,-28.10923 -2.24413996535,-42.27539 -6e-5,-0.83339 -1.2e-4,-1.66678 -1.8e-4,-2.52542 C 0.01274513,335.20879 0.34368513,323.34365 1.9233751,311.41351 c 0.24374,-1.87522 0.44004,-3.75645 0.63184,-5.63769 2.314,-20.9205 7.7798499,-41.19679 14.7988299,-60.97949 1.02164,-2.96326 1.87307,-5.96112 2.70898,-8.98145 9.93716,-32.50993 28.54683,-63.57789 49.125,-90.4375 0.46293,-0.60715 0.92587,-1.2143 1.40283,-1.83984 5.19825,-6.79454 10.52276,-13.39456 16.33155,-19.6836 1.86736,-2.04122 3.6787,-4.11188 5.48437,-6.20703 4.00023,-4.58177 8.229415,-8.90931 12.531255,-13.20703 0.79205,-0.79197 1.5841,-1.58394 2.40015,-2.3999 4.96565,-4.917529 9.99412,-9.511031 15.5061,-13.811038 2.2461,-1.774417 4.31595,-3.647931 6.40625,-5.601562 18.77127,-16.784895 41.6009,-30.764852 63.9375,-42.25 0.8387,-0.432319 1.67739,-0.864639 2.5415,-1.310059 16.01321,-8.157673 32.56079,-14.642773 49.4585,-20.689941 0.84385,-0.307764 1.68771,-0.615527 2.55713,-0.932617 11.35122,-4.095829 23.05938,-6.691589 34.81787,-9.3173826 1.16174,-0.2597511 1.16174,-0.2597511 2.34695,-0.5247498 25.90368,-5.7523667 51.51824,-7.6376615 78.02805,-7.60025023 z"
     style="fill:#3f4349"
     id="path1" />
  <path
     d="M 362.93803,0.00238037 C 364.12938,0.00159485 365.32074,8.0933e-4 366.54819,0 c 23.0485,0.01811413 46.13768,0.96872205 68.63984,6.3773804 1.98916,0.4458993 3.97878,0.889747 5.96875,1.3320312 12.48508,2.8173704 24.82813,5.8018924 37.03125,9.6679684 1.63969,0.506602 1.63969,0.506602 3.3125,1.023437 5.65164,1.802181 11.00176,3.925415 16.36328,6.457032 2.58763,1.182829 5.17553,2.299192 7.80469,3.382812 33.14959,13.710951 64.13561,31.903109 91.51953,55.136719 1.0319,0.858858 2.06448,1.716892 3.09766,2.574219 14.49005,12.073231 28.85128,24.777291 40.60546,39.574221 2.00208,2.48557 4.0728,4.88887 6.17994,7.28515 6.93056,7.94187 12.77234,16.53803 18.6018,25.30616 1.3452,2.00674 2.71565,3.99097 4.10498,5.96728 48.82946,70.05582 65.54932,162.36789 50.68248,245.8013 -2.12183,11.52885 -4.59571,22.94712 -8.19029,34.11276 -0.97585,3.04734 -1.80117,6.08977 -2.58203,9.19141 -1.28255,4.74756 -3.05192,9.16016 -5.00781,13.66797 -1.10952,2.61696 -2.16002,5.22855 -3.17188,7.88281 -11.07631,28.91542 -26.29382,56.18434 -45.32031,80.63672 -0.91081,1.19612 -1.82095,2.39274 -2.73047,3.58984 -8.33209,10.87727 -17.4894,20.81573 -27.26953,30.41016 -2.74044,2.72655 -5.46215,5.46975 -8.16406,8.23437 -6.94708,7.07937 -13.99921,13.66482 -21.83594,19.76563 -1.25764,1.01944 -2.51406,2.04038 -3.76953,3.0625 -19.26593,15.52528 -40.20859,28.69447 -62.23047,39.9375 -0.6919,0.3582 -1.38381,0.7164 -2.09668,1.08545 -31.25963,16.03518 -65.5689,26.21851 -99.90332,32.91455 -0.83886,0.16871 -1.67772,0.33741 -2.542,0.51123 -0.74669,0.14969 -1.49338,0.29939 -2.26269,0.45361 -0.61472,0.12367 -1.22945,0.24734 -1.86279,0.37476 -18.65818,3.37324 -37.34346,4.0094 -56.2688,3.97607 -3.72923,-0.003 -7.45765,0.0204 -11.18677,0.0457 -21.24347,0.0569 -42.13025,-1.7431 -62.93945,-6.11133 -1.24693,-0.25749 -2.49386,-0.51498 -3.77857,-0.78027 -60.87862,-12.90137 -120.16318,-41.14093 -166.15893,-83.46977 -1.28767,-1.12958 -2.57918,-2.25479 -3.875,-3.375 -10.67075,-9.30714 -20.901525,-18.87008 -30.125005,-29.625 -0.91884,-1.05506 -1.83815,-2.10972 -2.75781,-3.16406 -14.14218,-16.27074 -26.29941,-33.42593 -37.18506,-52.03467 -1.00476,-1.71203 -2.02468,-3.41512 -3.04541,-5.11768 C 22.507785,479.24115 8.3628351,436.97598 2.6255251,394.68988 c -0.12568,-0.8785 -0.25137,-1.75699 -0.38086,-2.66211 -1.92515997,-14.06075 -2.26000997,-28.10923 -2.24413996535,-42.27539 -6e-5,-0.83339 -1.2e-4,-1.66678 -1.8e-4,-2.52542 C 0.01274513,335.20879 0.34368513,323.34365 1.9233751,311.41351 c 0.24374,-1.87522 0.44004,-3.75645 0.63184,-5.63769 2.314,-20.9205 7.7798499,-41.19679 14.7988299,-60.97949 1.02164,-2.96326 1.87307,-5.96112 2.70898,-8.98145 9.93716,-32.50993 28.54683,-63.57789 49.125,-90.4375 0.46293,-0.60715 0.92587,-1.2143 1.40283,-1.83984 5.19825,-6.79454 10.52276,-13.39456 16.33155,-19.6836 1.86736,-2.04122 3.6787,-4.11188 5.48437,-6.20703 4.00023,-4.58177 8.229415,-8.90931 12.531255,-13.20703 0.79205,-0.79197 1.5841,-1.58394 2.40015,-2.3999 4.96565,-4.917529 9.99412,-9.511031 15.5061,-13.811038 2.2461,-1.774417 4.31595,-3.647931 6.40625,-5.601562 18.77127,-16.784895 41.6009,-30.764852 63.9375,-42.25 0.8387,-0.432319 1.67739,-0.864639 2.5415,-1.310059 16.01321,-8.157673 32.56079,-14.642773 49.4585,-20.689941 0.84385,-0.307764 1.68771,-0.615527 2.55713,-0.932617 11.35122,-4.095829 23.05938,-6.691589 34.81787,-9.3173826 1.16174,-0.2597511 1.16174,-0.2597511 2.34695,-0.5247498 25.90368,-5.7523667 51.51824,-7.6376615 78.02805,-7.60025023 z m -73.75,62.37499963 c -1.79825,0.407988 -1.79825,0.407988 -3.63282,0.824219 -43.79351,9.936722 -87.09597,33.125916 -120.36718,63.175781 -1.27617,1.13115 -1.27617,1.13115 -2.57812,2.28516 -2.49068,2.22046 -4.95618,4.4667 -7.42188,6.71484 -0.95648,0.85207 -1.91297,1.70414 -2.89844,2.58203 -34.60528,30.9691 -60.809025,72.80221 -76.101565,116.41797 -0.32049,0.90524 -0.64099,1.81049 -0.97119,2.74316 -6.6596,19.06929 -10.97695,38.51861 -12.66943,58.65137 -0.35938,3.60547 -0.35938,3.60547 -1.35938,6.60547 -0.10529,1.39025 -0.1584,2.78485 -0.177,4.17896 -0.0126,0.84499 -0.0253,1.68998 -0.0383,2.56057 -0.008,0.9174 -0.0152,1.8348 -0.0229,2.78 -0.0146,1.43725 -0.0146,1.43725 -0.0295,2.90354 -0.22673,28.14612 0.88503,55.04037 8.62671,82.29763 0.66147,2.35169 1.28179,4.71148 1.89502,7.07617 2.29163,8.73319 4.99888,16.969 8.74609,25.20313 0.67957,1.53854 1.35785,3.07765 2.03516,4.61719 15.75875,35.64824 35.834475,66.30878 62.964845,94.38281 0.53013,0.55204 1.06025,1.10408 1.60645,1.67285 6.72563,6.97864 13.7336,13.37157 21.39355,19.32715 0.61472,0.48582 1.22944,0.97163 1.86279,1.47217 10.32614,8.15697 20.91362,15.65676 32.13721,22.52783 0.73412,0.45085 1.46824,0.9017 2.22461,1.36621 18.60304,11.32744 38.10976,20.72818 58.77539,27.63379 0.68078,0.22881 1.36157,0.45762 2.06298,0.69336 4.61762,1.53508 9.26302,2.95367 13.93702,4.30664 0.71559,0.20867 1.43118,0.41733 2.16845,0.63232 43.58294,12.54042 90.22914,13.76747 134.83155,6.36768 1.58627,-0.25693 1.58627,-0.25693 3.20459,-0.51904 51.60262,-8.66844 106.30984,-33.21208 144.49463,-69.3208 1.94804,-1.82898 3.93256,-3.57397 5.95703,-5.31641 12.45705,-10.86574 24.24669,-22.72775 34.02344,-36.07471 1.44317,-1.93366 2.93826,-3.81837 4.44531,-5.70263 8.31268,-10.46422 15.2897,-21.44745 21.875,-33.06641 0.37995,-0.66209 0.7599,-1.32419 1.15137,-2.00635 5.80899,-10.18045 10.37803,-20.84439 14.8706,-31.65869 0.83032,-1.98231 1.68834,-3.95299 2.55225,-5.9209 2.49245,-5.70344 4.29532,-11.26946 5.6875,-17.33594 0.74764,-3.11714 1.66674,-6.141 2.61328,-9.20312 10.6127,-36.94036 12.35382,-77.01489 6.125,-114.875 -0.20939,-1.44107 -0.41657,-2.88246 -0.62109,-4.32422 -3.07629,-20.53065 -9.3841,-40.56661 -17.37891,-59.67578 -0.49718,-1.19061 -0.49718,-1.19061 -1.00439,-2.40527 -8.46045,-20.04552 -18.83987,-39.23118 -31.99561,-56.59473 -1.08088,-1.46373 -1.08088,-1.46373 -2.18359,-2.95703 C 561.98255,112.58665 489.63022,68.998199 409.78715,56.76361 c -6.19031,-0.919881 -12.37284,-1.741195 -18.59912,-2.38623 -1.04801,-0.112148 -2.09602,-0.224297 -3.17579,-0.339844 -32.69769,-2.914446 -67.20074,-0.499234 -98.82421,8.339844 z"
     style="fill:#e7e4e8"
     id="path2" />
  <path
     d="m 337.73881,248.22113 c 8.30352,-0.28187 15.19925,1.81634 23.05468,4.29297 20.03483,6.08187 41.15665,8.38619 61.86328,11.11328 6.4392,0.85668 12.85847,1.84172 19.28126,2.8125 9.72544,1.46001 19.44105,2.72865 29.22412,3.72412 2.61678,0.27562 5.22806,0.59495 7.84058,0.90796 9.12568,1.07596 18.27411,1.81662 27.43212,2.55154 58.255,4.68788 58.255,4.68788 66.39771,12.28904 4.37784,5.72486 5.10989,9.3083 4.35547,16.46484 -2.65363,8.35027 -9.26238,14.22134 -16.66406,18.5625 -27.05817,13.13642 -61.44368,10.52538 -90.33594,5.4375 -0.86818,-0.14985 -1.73637,-0.29971 -2.63086,-0.4541 -32.00788,-5.65481 -63.38813,-15.80698 -92.36915,-30.5459 7.47406,5.67096 15.14158,10.5883 23.3125,15.1875 2.28952,1.30649 4.57858,2.6138 6.86719,3.92188 1.70882,0.97356 1.70882,0.97356 3.45215,1.96679 27.4777,15.69472 27.4777,15.69472 36.36817,22.92383 0.88945,0.71543 1.77891,1.43086 2.69531,2.16797 7.64662,6.47621 12.38188,12.81417 13.54297,22.90234 0.34186,9.46423 -3.16952,17.63266 -9.16797,24.85156 -4.46265,4.4795 -10.51635,9.86045 -17.11328,10.17579 -0.7077,-0.0116 -1.4154,-0.0232 -2.14454,-0.0352 -1.25812,-0.0206 -2.51625,-0.0412 -3.8125,-0.0625 -0.11214,-0.60586 -0.22429,-1.21172 -0.33984,-1.83594 -3.17684,-13.49637 -14.53227,-21.11896 -25.66016,-28.16406 -5.41904,-3.32255 -10.90354,-6.53153 -16.39843,-9.72656 -5.37015,-3.12374 -10.6821,-6.3359 -15.97657,-9.58594 -0.77311,-0.47429 -1.54623,-0.94859 -2.34277,-1.43726 -1.7616,-1.08201 -3.52206,-2.16589 -5.28223,-3.25024 4.57722,3.96351 9.20886,7.84349 13.9375,11.625 0.95846,0.76824 0.95846,0.76824 1.93628,1.552 4.73831,3.77441 9.56894,7.40818 14.43872,11.0105 25.92965,19.2654 25.92965,19.2654 28.03516,31.89844 0.44372,6.48506 -1.62377,11.65885 -5.34766,16.91406 -5.88275,6.06804 -13.56034,10.57891 -22.07812,11.23828 -2.65501,0.0102 -5.27367,-0.057 -7.92188,-0.23828 -0.25394,-0.67547 -0.50789,-1.35094 -0.76953,-2.04688 -0.34418,-0.89203 -0.68836,-1.78406 -1.04297,-2.70312 -0.33644,-0.88172 -0.67289,-1.76344 -1.01953,-2.67188 -1.13684,-2.50942 -2.51208,-4.39558 -4.16797,-6.57812 0,-0.66 0,-1.32 0,-2 -0.56332,-0.25523 -1.12664,-0.51047 -1.70703,-0.77344 -2.57835,-1.37922 -4.68375,-3.04159 -6.98047,-4.85156 -7.19248,-5.3145 -15.15258,-8.8015 -23.3125,-12.375 -0.62584,-0.28408 -1.25168,-0.56815 -1.89648,-0.86084 -3.34607,-1.49488 -6.4757,-2.58949 -10.10352,-3.13916 0.66645,0.4125 1.33289,0.825 2.01954,1.25 5.90446,3.69958 11.61777,7.56501 17.21484,11.71484 1.866,1.37315 3.75225,2.71913 5.65625,4.03907 15.33235,10.70332 15.33235,10.70332 17.10937,18.99609 0.78083,8.44448 -0.69593,14.39898 -6.125,21.0625 -7.89549,8.55759 -18.85855,14.24801 -30.53125,15.14062 -10.80631,0.17813 -20.94254,-0.97417 -29.34375,-8.20312 -0.0857,-4.11446 0.15434,-6.06355 2.96485,-9.17578 3.21737,-2.85235 6.45657,-5.4385 10.03515,-7.82422 -6.8067,-0.74405 -10.88057,1.72788 -16.6875,5.0625 -27.8809,15.23852 -57.86816,20.29733 -88.99999,12.8125 -5.62441,-1.27003 -11.1975,-2.04983 -16.3125,1.125 -7.03629,3.42042 -16.21841,3.22464 -23.71484,1.30469 -2.24882,-0.94063 -4.22338,-2.00609 -6.28516,-3.30469 -0.76828,-0.47051 -1.53656,-0.94102 -2.32813,-1.42578 -17.1977,-11.01906 -26.62712,-27.98913 -31.10937,-47.63672 -3.70122,-18.02454 -3.93215,-40.4547 6.125,-56.5625 6.96981,-9.81253 15.22529,-14.00322 26.75,-16.6875 17.81727,-4.29604 34.29345,-12.44322 50.5625,-20.6875 1.10674,-0.55977 1.10674,-0.55977 2.23584,-1.13086 17.50249,-9.00149 33.81472,-20.85728 49.82665,-32.2441 41.39208,-29.42773 41.39208,-29.42773 63.48829,-30.78125 z"
     style="fill:#f2c037"
     id="path3" />
  <path
     d="m 369.4185,239.43207 c 11.50035,3.92537 23.79597,5.13156 35.76953,6.88281 13.70876,2.00877 13.70876,2.00877 19.46093,2.91797 8.75064,1.37704 17.45792,2.47293 26.28321,3.23487 9.74165,0.88067 19.4303,2.16737 29.13086,3.40966 11.67499,1.49173 23.32568,2.90616 35.06177,3.83203 10.7554,0.85311 21.46815,2.07585 32.18237,3.33741 2.40165,0.27558 4.80285,0.52453 7.20899,0.75634 11.85325,1.31556 23.66182,5.35052 31.67187,14.57422 5.21749,6.91475 7.01812,15.48956 6,24 -2.45633,12.37496 -7.98135,20.55382 -18.25,27.8125 -14.60314,9.73194 -32.33225,13.67642 -49.75,14.1875 -1.02964,0.0466 -1.02964,0.0466 -2.08008,0.0942 -18.46792,0.77665 -36.64457,-1.751 -54.91992,-4.09424 0.41137,0.75056 0.82274,1.50112 1.24658,2.27442 0.53995,0.9871 1.07992,1.9742 1.63623,2.99121 0.53513,0.97743 1.07025,1.95486 1.62159,2.96191 5.08266,9.42193 6.31515,18.71978 3.58154,29.31543 -2.46744,6.78944 -5.73393,12.70909 -10.08594,18.45703 -1.08282,1.51594 -1.08282,1.51594 -2.1875,3.0625 -6.33526,7.28656 -15.67305,12.97643 -24.8125,15.9375 -2.82032,0.125 -2.82032,0.125 -5,0 -0.165,0.94875 -0.33,1.8975 -0.5,2.875 -2.43132,8.34078 -9.50359,14.96858 -16.59375,19.58594 -8.42976,4.46415 -17.31202,7.38066 -26.90625,6.53906 -0.30938,1.485 -0.30938,1.485 -0.625,3 -2.80074,9.5532 -11.70503,17.50077 -19.92578,22.57422 -5.28036,2.73462 -10.75129,4.7522 -16.44922,6.42578 -1.09055,0.34934 -2.1811,0.69867 -3.30469,1.0586 -13.45447,3.42762 -29.55911,0.83308 -41.50781,-6.1211 -2.68457,-1.74196 -5.09492,-3.50165 -7.1875,-5.9375 0,-0.66 0,-1.32 0,-2 -0.53255,0.19634 -1.06509,0.39268 -1.61377,0.59497 -15.06373,5.51559 -29.22426,9.7663 -45.38623,10.40503 -1.63002,0.0793 -1.63002,0.0793 -3.29297,0.16016 -11.6471,0.30826 -23.02561,-1.67739 -34.26953,-4.59766 -4.50696,-0.96356 -7.35938,0.21069 -11.33203,2.39453 -8.30303,4.11301 -20.74879,3.15262 -29.41797,0.41797 -1.91353,-0.74787 -3.81073,-1.53913 -5.6875,-2.375 -0.89976,-0.38929 -1.79953,-0.77859 -2.72656,-1.17969 -19.71262,-9.60066 -32.28763,-29.48871 -39.43652,-49.55517 -4.08597,-11.89232 -5.23022,-23.52752 -5.21192,-36.07764 8.8e-4,-0.66047 0.002,-1.32094 0.003,-2.00143 0.0827,-18.89288 4.53596,-35.01936 18.01297,-48.97122 10.6117,-9.96165 22.61222,-12.81699 36.35937,-16.21485 8.1486,-2.02085 15.52951,-5.37903 23.04102,-9.04834 1.85907,-0.90312 3.72755,-1.78287 5.59961,-2.65869 18.46375,-8.77865 35.89946,-19.79856 52.38525,-31.8501 42.54857,-31.09845 42.54857,-31.09845 65.97412,-37.44287 0.61867,-0.17724 1.23734,-0.35449 1.87475,-0.53711 14.48441,-3.15482 30.64895,-0.15878 44.35538,4.59184 z m -44.23047,10.94531 c -0.68063,0.17145 -1.36125,0.34289 -2.0625,0.51953 -13.86411,4.06996 -26.23421,12.25669 -37.9375,20.48047 -0.74734,0.52368 -1.49467,1.04737 -2.26465,1.58692 -3.30459,2.31632 -6.60786,4.63452 -9.91016,6.9541 -28.95218,20.29389 -58.28396,38.74166 -91.82519,50.45898 -0.78939,0.2761 -1.57878,0.55221 -2.39209,0.83667 -4.17688,1.42907 -8.27629,2.59146 -12.60791,3.47583 -10.21318,2.51761 -17.78185,8.79347 -23.25,17.73047 -9.24273,17.56799 -7.72459,42.1347 -2.44336,60.74902 3.25001,10.34968 7.95779,19.66973 14.69336,28.20801 1.14469,1.57781 1.14469,1.57781 2.3125,3.1875 7.45939,7.80634 18.19128,14.81648 29.1836,15.10352 6.46313,0.0652 11.64385,0.10488 17.3164,-3.41602 5.46882,-2.18753 11.26497,-0.77837 16.78101,0.54883 31.15119,7.45834 62.64945,0.65368 90.00268,-15.22314 4.77681,-2.69512 7.90822,-3.73135 13.40381,-3.20069 -0.60328,0.44731 -1.20657,0.89461 -1.82813,1.35547 -6.30247,4.62695 -6.30247,4.62695 -11.17187,10.64453 -0.43759,2.46557 -0.43759,2.46557 0,5 6.04372,6.61079 14.4931,7.52693 22.91015,8.25 12.61025,0.53166 24.57162,-3.82611 34.15625,-12.01562 5.85375,-5.62155 8.99806,-10.78618 9.2461,-18.98438 -0.1375,-6.71771 -1.94794,-10.69121 -6.5,-15.61719 -6.74472,-6.44361 -14.22978,-11.46016 -22.04834,-16.48535 -10.34611,-6.72941 -10.34611,-6.72941 -12.76416,-9.14746 13.45275,3.10449 29.94217,10.79398 39.69922,20.73047 1.23639,1.50235 1.23639,1.50235 3.30078,1.26953 0.28746,0.5775 0.57492,1.155 0.87109,1.75 0.71293,1.42093 1.43332,2.83816 2.16406,4.25 0.33903,0.66 0.67805,1.32 1.02735,2 0.3416,0.66 0.6832,1.32 1.03515,2 0.89644,1.9869 1.442,3.87385 1.90235,6 10.1092,0.8955 18.79347,-1.48673 26.9375,-7.6875 4.90711,-4.69062 8.24107,-10.99541 8.6875,-17.8125 -0.84528,-11.49176 -9.42241,-19.35483 -17.625,-26.5 -3.34271,-2.70163 -6.78024,-5.23789 -10.27198,-7.74267 -3.41323,-2.4835 -6.75319,-5.06434 -10.10302,-7.63233 -0.71559,-0.54737 -1.43118,-1.09473 -2.16846,-1.65869 -6.8668,-5.26129 -13.67128,-10.60046 -20.45654,-15.96631 10.74498,6.20239 21.38698,12.57502 32,19 0.76022,0.45875 1.52045,0.91749 2.30371,1.39014 29.56137,17.8938 29.56137,17.8938 33.28613,32.70361 0.13535,0.62906 0.2707,1.25813 0.41016,1.90625 8.45526,0.60395 13.58289,-1.86395 20.125,-7.125 7.25613,-6.65621 11.76112,-15.375 12.1875,-25.25 -0.30713,-10.64101 -5.54228,-18.18415 -13,-25.375 -12.57746,-10.70951 -27.82538,-18.32435 -42.13965,-26.43823 -6.64468,-3.7701 -13.25144,-7.58249 -19.73535,-11.62427 -0.62995,-0.3901 -1.2599,-0.7802 -1.90894,-1.18213 -2.80288,-1.77204 -5.32098,-3.51496 -7.52856,-6.00537 0.94875,0.47309 1.8975,0.94617 2.875,1.4336 16.3899,8.01849 33.55331,14.63258 51.125,19.5664 1.5379,0.46306 3.07565,0.92665 4.61328,1.39063 10.90955,3.21141 21.86312,5.57175 33.07422,7.42187 1.25224,0.20682 2.50449,0.41363 3.79468,0.62671 30.38641,4.82521 66.47896,7.64299 93.51782,-9.43921 2.92354,-2.66412 5.47618,-5.39145 7.75,-8.625 0.40734,-0.56976 0.81469,-1.13953 1.23438,-1.72656 2.76351,-4.48539 2.58628,-9.56797 2.01562,-14.64844 -2.56807,-5.13614 -5.85129,-8.87171 -11.34375,-10.83984 -11.51976,-3.32683 -23.37599,-4.54174 -35.28125,-5.59766 -1.38382,-0.12647 -2.76761,-0.25336 -4.15137,-0.38061 -6.71217,-0.6139 -13.42643,-1.20231 -20.1423,-1.77434 -2.29332,-0.19537 -4.5865,-0.3923 -6.87967,-0.58943 -2.89309,-0.24866 -5.78664,-0.4905 -8.68066,-0.72803 -6.9476,-0.58425 -13.78177,-1.38949 -20.64746,-2.61035 -4.99477,-0.83388 -10.02716,-1.31941 -15.06104,-1.85474 -11.01179,-1.21903 -21.91509,-2.84587 -32.84375,-4.65234 -5.58379,-0.92133 -11.17723,-1.74743 -16.78125,-2.53516 -0.85159,-0.12133 -1.70318,-0.24266 -2.58057,-0.36767 -4.23887,-0.60254 -8.47936,-1.18606 -12.72412,-1.74561 -12.40549,-1.68333 -24.11897,-4.60032 -36.0625,-8.3125 -9.8765,-2.95176 -18.88474,-2.57732 -28.82031,-0.0117 z"
     style="fill:#323233"
     id="path4" />
  <path
     d="m 337.73881,248.22113 c 8.30352,-0.28187 15.19925,1.81634 23.05468,4.29297 20.03483,6.08187 41.15665,8.38619 61.86328,11.11328 6.4392,0.85668 12.85847,1.84172 19.28126,2.8125 9.72544,1.46001 19.44105,2.72865 29.22412,3.72412 2.61678,0.27562 5.22806,0.59495 7.84058,0.90796 9.12568,1.07596 18.27411,1.81662 27.43212,2.55154 59.64997,4.80014 59.64997,4.80014 66.62818,12.94138 0.37125,0.59813 0.7425,1.19625 1.125,1.8125 -0.59813,0.12375 -1.19625,0.2475 -1.8125,0.375 -2.44981,0.57976 -2.44981,0.57976 -5.1875,2.625 -2.86699,0.1953 -5.61505,0.27051 -8.48047,0.23438 -1.26616,-0.009 -1.26616,-0.009 -2.55791,-0.0186 -9.14553,-0.13198 -18.18667,-0.98743 -27.27412,-1.96576 -1.74988,-0.18117 -3.4998,-0.36199 -5.24976,-0.54248 -11.74899,-1.22957 -23.45155,-2.7024 -35.1499,-4.34497 -8.45241,-1.17287 -16.89209,-2.05056 -25.40918,-2.59156 -6.17814,-0.44151 -12.01485,-1.62599 -18.05444,-2.97973 -6.2282,-1.28866 -12.51226,-2.12609 -18.81199,-2.98297 -3.85604,-0.52549 -7.70937,-1.07027 -11.56302,-1.61298 -0.74528,-0.10461 -1.49057,-0.20921 -2.25844,-0.31699 -12.22493,-1.7206 -24.25659,-3.66527 -36.19078,-6.87832 -1.91366,-0.49763 -3.82777,-0.99355 -5.74218,-1.48828 -4.11922,-1.06622 -8.2384,-2.13255 -12.35547,-3.20703 -0.87149,-0.22704 -1.74298,-0.45407 -2.64087,-0.68799 -1.77012,-0.48271 -3.52088,-1.0365 -5.26148,-1.6167 -2.72058,-0.12366 -5.40442,-0.18515 -8.125,-0.1875 -0.72187,-0.0122 -1.44375,-0.0245 -2.1875,-0.0371 -8.67738,-0.0232 -16.10218,2.01984 -23.875,5.78711 -0.72904,0.34861 -1.45809,0.69722 -2.20922,1.0564 -12.69796,6.22394 -23.99898,14.73915 -35.53296,22.84594 -18.34913,12.89339 -18.34913,12.89339 -27.07032,18.53516 -0.58636,0.38076 -1.17272,0.76151 -1.77685,1.15381 -13.98558,9.04317 -28.37832,16.86259 -43.71923,23.35791 -2.71905,1.15491 -5.39311,2.35908 -8.06641,3.61328 -8.76169,3.87029 -17.85876,6.55956 -27.17212,8.69971 -13.32247,2.83907 -13.32247,2.83907 -23.01538,11.8042 -4.50475,8.30564 -6.91237,17.11974 -7.8125,26.49609 -0.4375,3.875 -0.4375,3.875 -2.4375,5.875 -0.38935,-17.43439 -0.38935,-17.43439 2,-26 0.19465,-0.75539 0.3893,-1.51078 0.58984,-2.28906 2.72725,-9.39208 8.32421,-17.18073 16.41016,-22.71094 4.93089,-2.59038 10.03428,-4.05401 15.4375,-5.3125 17.81727,-4.29604 34.29345,-12.44322 50.5625,-20.6875 1.10674,-0.55977 1.10674,-0.55977 2.23584,-1.13086 17.50249,-9.00153 33.81472,-20.85732 49.82665,-32.24414 41.39208,-29.42773 41.39208,-29.42773 63.48829,-30.78125 z"
     style="fill:#f7df9c"
     id="path5" />
</svg>
